<svg width="88" height="14" viewBox="0 0 88 14" fill="none" xmlns="http://www.w3.org/2000/svg">
<path d="M7.05 1.354V11H5.72V2.488H1.73V11H0.4V1.354H7.05ZM12.5493 3.454C13.5853 3.454 14.3879 3.79933 14.9573 4.49C15.5359 5.18067 15.8253 6.11867 15.8253 7.304C15.8253 8.06933 15.6946 8.746 15.4333 9.334C15.1719 9.91267 14.7939 10.3653 14.2993 10.692C13.8046 11.0093 13.2166 11.168 12.5353 11.168C11.4993 11.168 10.6919 10.8227 10.1133 10.132C9.5346 9.44133 9.24527 8.50333 9.24527 7.318C9.24527 6.55267 9.37593 5.88067 9.63727 5.302C9.8986 4.714 10.2766 4.26133 10.7713 3.944C11.2659 3.61733 11.8586 3.454 12.5493 3.454ZM12.5493 4.49C11.2706 4.49 10.6313 5.43267 10.6313 7.318C10.6313 9.194 11.2659 10.132 12.5353 10.132C13.8046 10.132 14.4393 9.18933 14.4393 7.304C14.4393 5.428 13.8093 4.49 12.5493 4.49ZM23.7383 9.964V13.1H22.6883L22.4783 11H17.7463L17.5363 13.1H16.4863V9.964H17.0043C17.2283 9.81467 17.4057 9.64667 17.5363 9.46C17.667 9.264 17.7837 8.928 17.8863 8.452C17.9983 7.976 18.087 7.28067 18.1523 6.366L18.3483 3.622H22.9683V9.964H23.7383ZM21.6803 4.644H19.5103L19.3983 6.198C19.333 7.066 19.2583 7.73333 19.1743 8.2C19.0903 8.66667 18.969 9.026 18.8103 9.278C18.661 9.53 18.4417 9.75867 18.1523 9.964H21.6803V4.644ZM29.011 3.454C29.9536 3.454 30.6443 3.79 31.083 4.462C31.5216 5.134 31.741 6.08133 31.741 7.304C31.741 8.46133 31.489 9.39467 30.985 10.104C30.481 10.8133 29.767 11.168 28.843 11.168C28.0216 11.168 27.3776 10.888 26.911 10.328V13.828L25.623 13.982V3.622H26.729L26.827 4.616C27.0976 4.24267 27.4243 3.958 27.807 3.762C28.1896 3.55667 28.591 3.454 29.011 3.454ZM28.535 10.118C29.7483 10.118 30.355 9.18 30.355 7.304C30.355 5.41867 29.7996 4.476 28.689 4.476C28.325 4.476 27.9936 4.58333 27.695 4.798C27.3963 5.01267 27.135 5.288 26.911 5.624V9.222C27.0976 9.51133 27.331 9.73533 27.611 9.894C27.891 10.0433 28.199 10.118 28.535 10.118ZM36.7075 3.454C37.7435 3.454 38.5461 3.79933 39.1155 4.49C39.6941 5.18067 39.9835 6.11867 39.9835 7.304C39.9835 8.06933 39.8528 8.746 39.5915 9.334C39.3301 9.91267 38.9521 10.3653 38.4575 10.692C37.9628 11.0093 37.3748 11.168 36.6935 11.168C35.6575 11.168 34.8501 10.8227 34.2715 10.132C33.6928 9.44133 33.4035 8.50333 33.4035 7.318C33.4035 6.55267 33.5341 5.88067 33.7955 5.302C34.0568 4.714 34.4348 4.26133 34.9295 3.944C35.4241 3.61733 36.0168 3.454 36.7075 3.454ZM36.7075 4.49C35.4288 4.49 34.7895 5.43267 34.7895 7.318C34.7895 9.194 35.4241 10.132 36.6935 10.132C37.9628 10.132 38.5975 9.18933 38.5975 7.304C38.5975 5.428 37.9675 4.49 36.7075 4.49ZM45.3313 4.098C46.1713 4.098 46.8386 4.40133 47.3333 5.008C47.8373 5.61467 48.0893 6.44067 48.0893 7.486C48.0893 8.65267 47.7953 9.558 47.2073 10.202C46.6193 10.846 45.8306 11.168 44.8413 11.168C43.8519 11.168 43.0586 10.818 42.4613 10.118C41.8733 9.418 41.5793 8.35867 41.5793 6.94C41.5793 5.86667 41.6586 4.98933 41.8173 4.308C41.9853 3.61733 42.2699 3.05267 42.6713 2.614C43.0819 2.166 43.6559 1.816 44.3933 1.564C44.9439 1.37733 45.3826 1.20933 45.7093 1.06C46.0453 0.910666 46.3859 0.719333 46.7313 0.485999L47.2773 1.452C46.9506 1.65733 46.6099 1.84867 46.2553 2.026C45.9099 2.194 45.4946 2.35733 45.0093 2.516C44.5426 2.67467 44.1739 2.85667 43.9033 3.062C43.6326 3.258 43.4133 3.54733 43.2453 3.93C43.0866 4.30333 42.9793 4.81667 42.9233 5.47C43.1846 5.04067 43.5206 4.70467 43.9313 4.462C44.3419 4.21933 44.8086 4.098 45.3313 4.098ZM44.8413 10.132C45.4106 10.132 45.8633 9.94067 46.1993 9.558C46.5353 9.166 46.7033 8.48933 46.7033 7.528C46.7033 6.67867 46.5633 6.06733 46.2833 5.694C46.0126 5.32067 45.6159 5.134 45.0933 5.134C44.6639 5.134 44.2626 5.25067 43.8893 5.484C43.5159 5.708 43.2079 6.05333 42.9653 6.52V7.416C42.9653 8.284 43.1286 8.956 43.4553 9.432C43.7913 9.89867 44.2533 10.132 44.8413 10.132ZM54.5727 11V7.752H51.5067V11H50.2187V3.622H51.5067V6.716H54.5727V3.622H55.8607V11H54.5727ZM64.0895 7.094C64.0895 7.30867 64.0802 7.528 64.0615 7.752H59.3575C59.4135 8.564 59.6188 9.16133 59.9735 9.544C60.3282 9.92667 60.7855 10.118 61.3455 10.118C61.7002 10.118 62.0268 10.0667 62.3255 9.964C62.6242 9.86133 62.9368 9.698 63.2635 9.474L63.8235 10.244C63.0395 10.86 62.1808 11.168 61.2475 11.168C60.2208 11.168 59.4182 10.832 58.8395 10.16C58.2702 9.488 57.9855 8.564 57.9855 7.388C57.9855 6.62267 58.1068 5.946 58.3495 5.358C58.6015 4.76067 58.9562 4.294 59.4135 3.958C59.8802 3.622 60.4262 3.454 61.0515 3.454C62.0315 3.454 62.7828 3.776 63.3055 4.42C63.8282 5.064 64.0895 5.95533 64.0895 7.094ZM62.8155 6.716C62.8155 5.988 62.6708 5.43267 62.3815 5.05C62.0922 4.66733 61.6582 4.476 61.0795 4.476C60.0248 4.476 59.4508 5.25067 59.3575 6.8H62.8155V6.716ZM71.7184 7.094C71.7184 7.30867 71.7091 7.528 71.6904 7.752H66.9864C67.0424 8.564 67.2477 9.16133 67.6024 9.544C67.9571 9.92667 68.4144 10.118 68.9744 10.118C69.3291 10.118 69.6557 10.0667 69.9544 9.964C70.2531 9.86133 70.5657 9.698 70.8924 9.474L71.4524 10.244C70.6684 10.86 69.8097 11.168 68.8764 11.168C67.8497 11.168 67.0471 10.832 66.4684 10.16C65.8991 9.488 65.6144 8.564 65.6144 7.388C65.6144 6.62267 65.7357 5.946 65.9784 5.358C66.2304 4.76067 66.5851 4.294 67.0424 3.958C67.5091 3.622 68.0551 3.454 68.6804 3.454C69.6604 3.454 70.4117 3.776 70.9344 4.42C71.4571 5.064 71.7184 5.95533 71.7184 7.094ZM70.4444 6.716C70.4444 5.988 70.2997 5.43267 70.0104 5.05C69.7211 4.66733 69.2871 4.476 68.7084 4.476C67.6537 4.476 67.0797 5.25067 66.9864 6.8H70.4444V6.716ZM87.1824 6.394L83.3324 10.706L82.3944 9.908L84.2844 7.836C84.6484 7.43467 84.9751 7.14067 85.2644 6.954H77.8584V5.834H85.2644C85.0684 5.71267 84.9097 5.60067 84.7884 5.498C84.6764 5.386 84.5084 5.204 84.2844 4.952L82.3944 2.88L83.3324 2.082L87.1824 6.394Z" fill="#1A75E8"/>
</svg>
